<svg xmlns="http://www.w3.org/2000/svg" height="32" viewBox="0 -960 960 960" width="32" fill="#2563eb">
  <path d="M480-80q-83 0-156-31.5T197-197q-54-54-85.5-127T80-480q0-83 31.5-156T197-763q54-54 127-85.5T480-880q83 0 156 31.5T763-763q54 54 85.5 127T880-480q0 83-31.5 156T763-197q-54 54-127 85.5T480-80Zm-40-82v-78q-33-8-56.5-29.5T360-320v-40L168-552q-3 18-5.5 36t-2.5 36q0 121 79.5 212T440-162Zm276-102q20-22 36-47.5t26.5-53q-23-6-42.5-18t-35.5-29.5q-8-12-14.5-25T677-465q-3-17-4-34.5t5-35.5l128-36q-6-66-41.5-121.5T676-785v85q0 33-23.5 56.5T596-620h-84l-72-72v-88h-58q-59 18-106.5 61.5T212-616l208 208v58q0 29 26.5 45t60.5 7l41-14 36 94 136 156Z"/>
</svg>